<?xml version="1.0" encoding="UTF-8" standalone="no"?>
<svg
   id="Layer_1"
   style="enable-background:new 0 0 128 128;"
   version="1.1"
   viewBox="0 0 128 128"
   xml:space="preserve"
   sodipodi:docname="close_32-32.svg"
   inkscape:version="1.2.2 (b0a8486541, 2022-12-01)"
   xmlns:inkscape="http://www.inkscape.org/namespaces/inkscape"
   xmlns:sodipodi="http://sodipodi.sourceforge.net/DTD/sodipodi-0.dtd"
   xmlns="http://www.w3.org/2000/svg"
   xmlns:svg="http://www.w3.org/2000/svg"><defs
     id="defs11" /><sodipodi:namedview
     id="namedview9"
     pagecolor="#ffffff"
     bordercolor="#000000"
     borderopacity="0.25"
     inkscape:showpageshadow="2"
     inkscape:pageopacity="0.0"
     inkscape:pagecheckerboard="0"
     inkscape:deskcolor="#d1d1d1"
     showgrid="false"
     inkscape:zoom="4.1015625"
     inkscape:cx="63.878095"
     inkscape:cy="64.121905"
     inkscape:window-width="1366"
     inkscape:window-height="705"
     inkscape:window-x="-8"
     inkscape:window-y="-8"
     inkscape:window-maximized="1"
     inkscape:current-layer="Layer_1" /><style
     type="text/css"
     id="style2">
	.st0{fill:#4D4D4D;}
	.st1{fill:#FFFFFF;}
</style><circle
     class="st0"
     cx="64"
     cy="64"
     r="64"
     id="circle4" /><path
     class="st1"
     d="M100.3,90.4L73.9,64l26.3-26.4c0.4-0.4,0.4-1,0-1.4l-8.5-8.5c-0.4-0.4-1-0.4-1.4,0L64,54.1L37.7,27.8  c-0.4-0.4-1-0.4-1.4,0l-8.5,8.5c-0.4,0.4-0.4,1,0,1.4L54,64L27.7,90.3c-0.4,0.4-0.4,1,0,1.4l8.5,8.5c0.4,0.4,1.1,0.4,1.4,0L64,73.9  l26.3,26.3c0.4,0.4,1.1,0.4,1.5,0.1l8.5-8.5C100.7,91.4,100.7,90.8,100.3,90.4z"
     id="path6" /><path
     style="fill:#0000ff;stroke-width:0.24381"
     d="M 61.805714,127.82378 C 30.181447,126.76004 3.9931504,102.41473 0.49381703,70.826667 -0.04010452,66.00702 0.18486747,58.358404 1.006563,53.394286 5.3984432,26.861573 26.861573,5.3984432 53.394286,1.006563 58.43111,0.17283245 65.807928,-0.05000096 70.704762,0.48366102 100.62533,3.7444347 124.22025,27.287969 127.50224,57.157435 c 0.14637,1.332206 0.26614,4.411362 0.26614,6.842565 0,2.431203 -0.11977,5.510359 -0.26614,6.842565 -2.80169,25.498195 -20.5836,46.881925 -45.186652,54.339445 -6.162315,1.86788 -13.89735,2.86419 -20.509874,2.64177 z M 50.709104,87.406775 64.003811,74.120214 77.167621,87.292119 c 7.254184,7.258645 13.421612,13.238141 13.738072,13.319441 0.494984,0.12716 1.210246,-0.48779 5.180952,-4.454369 2.930476,-2.92743 4.606685,-4.78051 4.606685,-5.092766 0,-0.323423 -4.532272,-5.022567 -13.286553,-13.775743 L 74.120221,64.003803 87.406777,50.709099 C 95.72461,42.386166 100.69333,37.23944 100.69333,36.946556 c 0,-0.654928 -8.96911,-9.639889 -9.622883,-9.639889 -0.331379,0 -4.921949,4.42562 -13.781765,13.286556 L 64.003803,53.879779 50.709099,40.593223 C 43.397013,33.285617 37.251101,27.306667 37.051519,27.306667 c -0.470755,0 -9.744852,9.278505 -9.744852,9.749484 0,0.197035 5.97895,6.340862 13.286556,13.652948 L 53.879779,64.003803 40.593223,77.288682 c -8.860936,8.859816 -13.286556,13.450386 -13.286556,13.781765 0,0.653773 8.984961,9.622883 9.639889,9.622883 0.292884,0 5.43961,-4.96872 13.762548,-13.286555 z"
     id="path186" /></svg>
